<svg class="logo" width="122" height="130" viewBox="0 0 122 130" fill="none" xmlns="http://www.w3.org/2000/svg"><path d="M121.592 48.2126C121.354 47.9298 120.975 47.8097 120.619 47.9008L110.974 50.3957C110.577 50.498 110.163 50.3378 109.936 49.9991L105.744 43.7134C105.695 43.6397 105.637 43.5727 105.568 43.5171L101.612 40.1536C101.505 40.0624 101.42 39.9487 101.36 39.8195L96.4198 28.9093C96.3974 28.8537 96.3685 28.8027 96.3329 28.7557L93.4392 24.6216C93.4323 24.6104 93.4257 24.6015 93.4191 24.5926L89.4185 18.3912C89.285 18.1817 89.2334 17.9278 89.285 17.6828L89.4028 17.0945C89.4587 16.814 89.6369 16.5732 89.8883 16.4377C90.1424 16.3018 90.4408 16.2863 90.7058 16.3953L91.3185 16.6492C91.6615 16.7919 92.0579 16.7205 92.3319 16.4666C92.6038 16.2147 92.7061 15.8273 92.5949 15.4731L91.9066 13.3123C91.8042 12.9873 91.5369 12.742 91.2027 12.6687L84.3645 11.1473C84.2198 11.1163 84.0659 11.1183 83.9235 11.1541L78.4797 12.5148C78.3192 12.5549 78.1501 12.5526 77.9894 12.5059L73.2271 11.1739C73.0512 11.1252 72.891 11.0272 72.7706 10.8888L71.5364 9.49889C71.3647 9.30719 71.1245 9.19141 70.8683 9.18024L67.9126 9.03119C67.4223 9.00885 66.9904 9.35848 66.9191 9.84623L66.5628 12.2253C66.5227 12.4838 66.3823 12.7154 66.1708 12.8647C65.9568 13.014 65.6919 13.0719 65.438 13.0252L59.1589 11.8379C58.8159 11.7711 58.5373 11.5281 58.4284 11.1985L57.9719 9.82846C57.8449 9.44988 57.4951 9.18912 57.0964 9.17592L52.1003 9.00428C51.8083 8.99539 51.5389 8.85295 51.3652 8.62113L49.7458 6.46038C49.5831 6.24431 49.5208 5.96806 49.5721 5.70323C49.6232 5.43587 49.7859 5.20634 50.0175 5.06618L50.4428 4.80999C50.8795 4.54922 51.0331 3.99241 50.799 3.54248L49.2106 0.509055C49.0209 0.152569 48.6291 -0.0480174 48.2282 0.00987337L29.5975 2.64086C29.5196 2.64975 29.4436 2.67209 29.3703 2.70103L23.9285 4.91739C23.8305 4.95954 23.7257 4.98188 23.6188 4.98645L20.1306 5.16901C19.8967 5.18247 19.6786 5.27819 19.5136 5.44095L13.0316 11.7246C12.8848 11.8673 12.7866 12.0519 12.7533 12.2525L12.2409 15.3197C12.1988 15.5894 12.0406 15.8255 11.8113 15.9725L6.04865 19.6211C5.91256 19.7057 5.79906 19.8261 5.7234 19.9662L0.486564 29.4354C0.399728 29.5913 0.357579 29.765 0.366212 29.9432L0.771447 38.6347C0.773733 38.7104 0.769162 38.784 0.753674 38.8577L0.0165813 42.7313C-0.0369931 43.0141 0.0409567 43.3081 0.225801 43.5311L14.3232 60.246C14.5573 60.5223 14.927 60.6424 15.2812 60.5601L21.5248 59.0433C21.6205 59.0209 21.7185 59.012 21.8188 59.0186L30.5616 59.629C30.682 59.6402 30.8043 59.6224 30.9224 59.5869L37.4245 57.4817C37.734 57.3817 38.0724 57.4462 38.3243 57.6508L42.2647 60.8765C42.4561 61.0301 42.7034 61.108 42.9507 61.0882L46.5928 60.783C46.8602 60.763 47.1229 60.8518 47.3187 61.0347C47.5173 61.2149 47.6308 61.4688 47.6308 61.7385V65.2691C47.6308 65.3178 47.6262 65.3648 47.6196 65.4118L47.0582 69.1472C47.0204 69.41 47.0915 69.6817 47.2611 69.8889L51.2995 74.8873C51.3843 74.994 51.4465 75.1189 51.482 75.2504L54.7366 87.8671C54.7833 88.0428 54.7767 88.2279 54.7211 88.3992L51.7519 97.7077C51.6808 97.9307 51.694 98.1734 51.7875 98.3872L56.8595 109.745C56.8974 109.83 56.924 109.919 56.9352 110.015L57.9351 117.829C57.9574 118.009 58.0354 118.178 58.1491 118.319L63.0272 124.17C63.1699 124.344 63.2476 124.558 63.2476 124.783V129.046C63.2476 129.32 63.3656 129.583 63.5751 129.766C63.78 129.949 64.056 130.029 64.3302 129.993L72.9572 128.871L80.2009 127.864C80.4282 127.83 80.6377 127.719 80.789 127.543L91.7862 114.92C91.8929 114.795 91.9688 114.641 92 114.479L92.5081 111.951C92.5571 111.703 92.7041 111.483 92.9156 111.343L94.0716 110.574C94.3301 110.398 94.4903 110.111 94.4969 109.799L94.6866 101.985C94.6932 101.765 94.7755 101.551 94.9204 101.384L97.2569 98.6883C97.3772 98.5502 97.5309 98.4522 97.7068 98.3989L102.451 96.991C102.859 96.8709 103.137 96.4989 103.137 96.0731V86.5663C103.137 86.4861 103.129 86.4079 103.108 86.3322L100.796 77.2753C100.685 76.8386 100.892 76.3844 101.295 76.1815L102.079 75.7897C102.222 75.7184 102.342 75.6158 102.431 75.4888L109.318 65.766C109.417 65.6258 109.552 65.5166 109.706 65.4453L115.259 62.9572C115.471 62.8615 115.642 62.6899 115.738 62.4784L121.73 49.2227C121.882 48.8855 121.831 48.4934 121.592 48.2126Z" fill="#ffffff"></path><path d="M119.207 90.4526C119.057 90.1697 118.779 89.9783 118.463 89.9448C118.146 89.9092 117.832 90.0339 117.627 90.2789L112.99 95.7719C112.896 95.8854 112.778 95.9748 112.642 96.0327L110.043 97.171C109.693 97.3223 109.47 97.6676 109.47 98.0487V103.423C109.47 103.504 109.459 103.581 109.439 103.657L108.691 106.653C108.648 106.827 108.655 107.008 108.708 107.179L110.435 112.529C110.515 112.777 110.689 112.977 110.92 113.093C111.15 113.207 111.419 113.225 111.66 113.14L115.121 111.934C115.415 111.832 115.641 111.596 115.729 111.3L119.81 97.2108L120.757 93.9921C120.826 93.7559 120.801 93.4997 120.688 93.2791L119.207 90.4526Z" fill="#ffffff"></path><g clip-path="url(#clip0_312_2)"><path d="M52.7375 40.4H62.475V43.9875C62.475 46.5308 64.5442 48.6 67.0875 48.6C69.6308 48.6 71.7 46.5308 71.7 43.9875V36.1975L75.8577 38.6959C77.0941 39.4326 77.85 40.7716 77.85 42.2066V45.2367L82.975 48.1964C83.9552 48.7601 84.2947 50.0158 83.7245 50.9959L78.5995 59.875C78.0358 60.8551 76.7802 61.1883 75.8 60.6245L69.1759 56.8H60.425C58.1636 56.8 56.325 54.9614 56.325 52.7H55.3C54.1661 52.7 53.25 51.7839 53.25 50.65V46.55H52.7375C51.8855 46.55 51.2 45.8645 51.2 45.0125V41.9375C51.2 41.0855 51.8855 40.4 52.7375 40.4ZM43.2755 38.0041L48.4005 29.125C48.9642 28.1448 50.2198 27.8117 51.2 28.3755L57.8241 32.2H64.3713C65.14 32.2 65.8895 32.4178 66.543 32.8214L68.6891 34.1603C69.2913 34.5319 69.65 35.1917 69.65 35.8964V43.9875C69.65 45.4033 68.5033 46.55 67.0875 46.55C65.6717 46.55 64.525 45.4033 64.525 43.9875V38.35H52.7375C50.758 38.35 49.15 39.958 49.15 41.9375V43.7633L44.025 40.8036C43.0448 40.2334 42.7117 38.9842 43.2755 38.0041Z" fill="#E8B439"></path></g><defs><clipPath id="clip0_312_2"><rect width="41" height="41" fill="currentColor" transform="matrix(-1 0 0 1 84 24)"></rect></clipPath></defs></svg>
